<mxfile host="65bd71144e">
    <diagram name="简化版工作流程" id="manus-simple-workflow">
        <mxGraphModel dx="794" dy="344" grid="1" gridSize="10" guides="1" tooltips="1" connect="1" arrows="1" fold="1" page="1" pageScale="1" pageWidth="827" pageHeight="1169" math="0" shadow="0">
            <root>
                <mxCell id="0"/>
                <mxCell id="1" parent="0"/>
                <mxCell id="start" value="&amp;nbsp;开始" style="rounded=1;whiteSpace=wrap;html=1;fillColor=#dae8fc;strokeColor=#6c8ebf;fontSize=16;fontStyle=1" parent="1" vertex="1">
                    <mxGeometry x="350" y="50" width="120" height="60" as="geometry"/>
                </mxCell>
                <mxCell id="input" value="输入任务描述prompt：&lt;div&gt;&lt;font color=&quot;#000000&quot;&gt;&lt;br&gt;&lt;/font&gt;&lt;div&gt;&quot;对当前session信息进行准确性校验溯源和竞品对比分析“&lt;/div&gt;&lt;/div&gt;" style="rounded=1;whiteSpace=wrap;html=1;fillColor=#fff2cc;strokeColor=#d6b656;fontSize=14" parent="1" vertex="1">
                    <mxGeometry x="310" y="150" width="200" height="80" as="geometry"/>
                </mxCell>
                <mxCell id="planning" value="Manus Planning&lt;div&gt;&lt;font color=&quot;#000000&quot;&gt;&lt;br&gt;&lt;/font&gt;□ 分析当前query类型是否需要溯源&lt;br&gt;□ 调用工具获取参考答案判断准确性&lt;br&gt;□ 调用竞品API进行对比分析&lt;div&gt;&lt;span style=&quot;color: rgb(0, 0, 0);&quot;&gt;□ 输出结果报告&lt;/span&gt;&lt;/div&gt;&lt;/div&gt;" style="rounded=1;whiteSpace=wrap;html=1;fillColor=#e1d5e7;strokeColor=#9673a6;fontSize=14" parent="1" vertex="1">
                    <mxGeometry x="280" y="270" width="260" height="110" as="geometry"/>
                </mxCell>
                <mxCell id="execution" value="Manus&amp;nbsp;executing&lt;div&gt;&lt;br&gt;✓&amp;nbsp;&lt;span style=&quot;color: rgb(0, 0, 0);&quot;&gt;分析当前query类型是否需要溯源&lt;/span&gt;← 完成！&lt;br&gt;→&amp;nbsp;&lt;span style=&quot;color: rgb(0, 0, 0);&quot;&gt;调用工具获取参考答案判断准确性&lt;/span&gt;← 进行中&lt;br&gt;□&amp;nbsp;&lt;span style=&quot;color: rgb(0, 0, 0); background-color: transparent;&quot;&gt;调用竞品API进行对比分析&lt;/span&gt;&lt;span style=&quot;background-color: transparent;&quot;&gt;← 等待&lt;/span&gt;&lt;/div&gt;&lt;div&gt;&lt;span style=&quot;color: rgb(0, 0, 0);&quot;&gt;□ 输出结果报告&lt;/span&gt;&lt;span style=&quot;background-color: transparent;&quot;&gt;&lt;/span&gt;&lt;span style=&quot;color: rgb(63, 63, 63); background-color: transparent;&quot;&gt;← 等待&lt;/span&gt;&lt;/div&gt;" style="rounded=1;whiteSpace=wrap;html=1;fillColor=#d5e8d4;strokeColor=#82b366;fontSize=14" parent="1" vertex="1">
                    <mxGeometry x="250" y="400" width="320" height="110" as="geometry"/>
                </mxCell>
                <mxCell id="check" value="&amp;nbsp;全部完成？" style="rhombus;whiteSpace=wrap;html=1;fillColor=#ffe6cc;strokeColor=#d79b00;fontSize=14" parent="1" vertex="1">
                    <mxGeometry x="330" y="550" width="160" height="80" as="geometry"/>
                </mxCell>
                <mxCell id="continue" value="继续下一步" style="rounded=1;whiteSpace=wrap;html=1;fillColor=#f8cecc;strokeColor=#b85450;fontSize=12" parent="1" vertex="1">
                    <mxGeometry x="580" y="570" width="100" height="40" as="geometry"/>
                </mxCell>
                <mxCell id="end" value="🎯 交付成果" style="rounded=1;whiteSpace=wrap;html=1;fillColor=#dae8fc;strokeColor=#6c8ebf;fontSize=16;fontStyle=1" parent="1" vertex="1">
                    <mxGeometry x="350" y="670" width="120" height="60" as="geometry"/>
                </mxCell>
                <mxCell id="arrow1" style="edgeStyle=orthogonalEdgeStyle;rounded=0;orthogonalLoop=1;jettySize=auto;html=1;exitX=0.5;exitY=1;exitDx=0;exitDy=0;entryX=0.5;entryY=0;entryDx=0;entryDy=0;fontSize=12;strokeWidth=2;fillColor=#dae8fc;strokeColor=#6c8ebf;" parent="1" source="start" target="input" edge="1">
                    <mxGeometry relative="1" as="geometry"/>
                </mxCell>
                <mxCell id="arrow2" style="edgeStyle=orthogonalEdgeStyle;rounded=0;orthogonalLoop=1;jettySize=auto;html=1;exitX=0.5;exitY=1;exitDx=0;exitDy=0;entryX=0.5;entryY=0;entryDx=0;entryDy=0;fontSize=12;strokeWidth=2;fillColor=#dae8fc;strokeColor=#6c8ebf;" parent="1" source="input" target="planning" edge="1">
                    <mxGeometry relative="1" as="geometry"/>
                </mxCell>
                <mxCell id="arrow3" style="edgeStyle=orthogonalEdgeStyle;rounded=0;orthogonalLoop=1;jettySize=auto;html=1;exitX=0.5;exitY=1;exitDx=0;exitDy=0;entryX=0.5;entryY=0;entryDx=0;entryDy=0;fontSize=12;strokeWidth=2;fillColor=#dae8fc;strokeColor=#6c8ebf;" parent="1" source="planning" target="execution" edge="1">
                    <mxGeometry relative="1" as="geometry"/>
                </mxCell>
                <mxCell id="arrow4" style="edgeStyle=orthogonalEdgeStyle;rounded=0;orthogonalLoop=1;jettySize=auto;html=1;exitX=0.5;exitY=1;exitDx=0;exitDy=0;entryX=0.5;entryY=0;entryDx=0;entryDy=0;fontSize=12;strokeWidth=2;fillColor=#dae8fc;strokeColor=#6c8ebf;" parent="1" source="execution" target="check" edge="1">
                    <mxGeometry relative="1" as="geometry"/>
                </mxCell>
                <mxCell id="arrow5" style="edgeStyle=orthogonalEdgeStyle;rounded=0;orthogonalLoop=1;jettySize=auto;html=1;exitX=1;exitY=0.5;exitDx=0;exitDy=0;entryX=0;entryY=0.5;entryDx=0;entryDy=0;fontSize=12;strokeWidth=2;fillColor=#f8cecc;strokeColor=#b85450;" parent="1" source="check" target="continue" edge="1">
                    <mxGeometry relative="1" as="geometry"/>
                </mxCell>
                <mxCell id="arrow6" style="edgeStyle=orthogonalEdgeStyle;rounded=0;orthogonalLoop=1;jettySize=auto;html=1;exitX=0.5;exitY=0;exitDx=0;exitDy=0;entryX=1;entryY=0.5;entryDx=0;entryDy=0;fontSize=12;strokeWidth=2;fillColor=#f8cecc;strokeColor=#b85450;" parent="1" source="continue" target="execution" edge="1">
                    <mxGeometry relative="1" as="geometry">
                        <Array as="points">
                            <mxPoint x="630" y="460"/>
                        </Array>
                    </mxGeometry>
                </mxCell>
                <mxCell id="arrow8" style="edgeStyle=orthogonalEdgeStyle;rounded=0;orthogonalLoop=1;jettySize=auto;html=1;exitX=0.5;exitY=1;exitDx=0;exitDy=0;entryX=0.5;entryY=0;entryDx=0;entryDy=0;fontSize=12;strokeWidth=2;fillColor=#dae8fc;strokeColor=#6c8ebf;" parent="1" source="check" target="end" edge="1">
                    <mxGeometry relative="1" as="geometry">
                        <mxPoint x="410" y="780" as="sourcePoint"/>
                    </mxGeometry>
                </mxCell>
                <mxCell id="label1" value="否" style="text;html=1;strokeColor=none;fillColor=none;align=center;verticalAlign=middle;whiteSpace=wrap;rounded=0;fontSize=12;fontColor=#b85450;" parent="1" vertex="1">
                    <mxGeometry x="500" y="565" width="40" height="20" as="geometry"/>
                </mxCell>
                <mxCell id="label2" value="是" style="text;html=1;strokeColor=none;fillColor=none;align=center;verticalAlign=middle;whiteSpace=wrap;rounded=0;fontSize=12;fontColor=#007FFF;" parent="1" vertex="1">
                    <mxGeometry x="420" y="640" width="40" height="20" as="geometry"/>
                </mxCell>
                <mxCell id="title" value="🤖 Manus智能规划助手 - 超简化工作流程" style="text;html=1;strokeColor=none;fillColor=none;align=center;verticalAlign=middle;whiteSpace=wrap;rounded=0;fontSize=20;fontStyle=1;fontColor=#2F4F4F;" parent="1" vertex="1">
                    <mxGeometry x="200" y="10" width="400" height="30" as="geometry"/>
                </mxCell>
            </root>
        </mxGraphModel>
    </diagram>
</mxfile>
